<svg version="1.2" xmlns="http://www.w3.org/2000/svg" viewBox="0 0 1600 1600" width="1600" height="1600"><defs><filter x="-50%" y="-50%" width="200%" height="200%" id="f1" ><feDropShadow dx="-23.382685902179844" dy="13.499999999999998" stdDeviation="5.416666666666667" flood-color="#000000" flood-opacity=".6"/></filter><filter x="-50%" y="-50%" width="200%" height="200%" id="f2" ><feDropShadow dx="-23.382685902179844" dy="13.499999999999998" stdDeviation="5.416666666666667" flood-color="#000000" flood-opacity=".6"/></filter><filter x="-50%" y="-50%" width="200%" height="200%" id="f3" ><feDropShadow dx="-23.382685902179844" dy="13.499999999999998" stdDeviation="5.416666666666667" flood-color="#000000" flood-opacity=".6"/></filter></defs><style>.a{filter:url(#f1);fill:#fff}.b{filter:url(#f2);fill:#fff}.c{filter:url(#f3);fill:#fff}.d{fill:#fff}</style><path fill-rule="evenodd" class="a" d="m881.9 1149.2l-0.5-0.9c-0.7-1.3-2-2.9-3.1-4.3l-0.4-0.7c-0.6-0.8-1.2-1.6-1.7-2.4l-2.7-4.1-0.4-0.3-135.9-209.3c-4-6.1-7.3-12.5-10-19.2-2.7-6.7-4.8-13.6-6.2-20.7-1.4-7.1-2.1-14.4-2.1-21.6 0-7.2 0.7-14.4 2.1-21.5 1.3-7.1 3.3-14 5.9-20.7 2.6-6.6 5.9-13 9.7-19.1 3.9-6 8.3-11.6 13.3-16.8 5-5.2 10.4-9.8 16.3-14 7.6-5.2 15.9-9.5 24.7-12.5 8.7-3.1 17.8-5 27.1-5.7 9.2-0.7 18.5-0.1 27.6 1.7 9.1 1.8 17.9 4.8 26.2 8.9v-349.8c-0.1-60.8 45.7-110.4 102-110.4 56.3 0 102.2 49.6 102.2 110.5v112.3q3.1-1 6.3-1.8 3.1-0.7 6.4-1.3 3.2-0.5 6.4-0.8 3.3-0.2 6.6-0.2c26.6 0 51.7 12.8 69.5 34.9q5.1-3.4 10.7-6 5.6-2.7 11.5-4.5 5.9-1.9 12.1-2.8 6.1-1 12.3-1.1 7.1 0 14.1 1.3 7 1.2 13.7 3.5 6.7 2.4 12.9 5.9 6.3 3.4 11.8 7.9c11.7 9.1 21.6 21 28.7 34.8 8.3-2.7 16.9-4.1 25.6-4.1 52.4 0 95 49.6 95 110.5v293.9c0 65.1-28.7 136.9-73.2 183.2-24.8 25.8-51.5 40.1-75.4 40.1h-290.4c-54.5 0-78.9-40.4-98.7-72.8zm395 18.5c8.8 0 30.7-14.7 52.2-47.3 23-35.2 36.2-77.3 36.2-115.4v-302.3c0-24.7-15.2-46.2-32.6-46.2q-1.4 0-2.9 0.2-1.4 0.2-2.8 0.6-1.4 0.3-2.7 0.9-1.3 0.5-2.6 1.2v105.7h-0.1c-1.2 17.7-15.5 31.5-32.6 31.6-17.3 0-31.6-14-32.7-31.6h-0.1v-91.7l-1.9-25.8c-1.7-23-16.4-41.7-32.8-41.7-7.3 0-14.8 4-20.7 10.8v114.3c0 18.7-14.7 33.9-32.8 33.9-18.1-0.1-32.7-15.2-32.7-33.9v-100.6l-2.5-11.7c-4-19.6-17.6-34.3-31.4-34.3-9.5 0-18.9 6.7-25.3 17.5l-1 113.5v42.6c0 16.6-13.2 30.2-29.2 30.2h-7.1c-16 0-29.1-13.6-29.1-30.2v-340.5l-0.2-12c0-25.4-17.9-46.1-40-46.1-22.1 0-40 20.7-40 46.1l1.4 330.9q0.1 1.5 0.1 3.1v131.3c-0.2 16.9-12.5 31-28.6 33.2-4 0.4-8 0.2-11.8-0.7-3.9-1-7.6-2.6-10.8-4.9-3.3-2.2-6.1-5-8.4-8.3-2.3-3.3-3.9-6.9-4.9-10.8l-12.3-37.1q-2.4-3.7-5.5-6.9-3.1-3.2-6.7-5.8-3.7-2.5-7.8-4.3-4.1-1.7-8.4-2.6-4.4-0.9-8.8-0.9-4.4 0-8.7 0.9-4.3 0.9-8.4 2.6-4 1.8-7.7 4.3c-20.4 14.2-25.9 42.9-12.1 64.1l140.1 215.4 0.5 0.6 1.7 2.6 2.2 3.3c1.3 2.2 2.7 4.2 4 5.8l0.9 1.2 0.7 1.5c21.8 36 30.2 43.8 46.8 43.8h299.9z"/><path fill-rule="evenodd" class="b" d="m314.7 198h269.5c17.7 0 35.2 3.5 51.6 10.3 16.3 6.7 31.2 16.7 43.7 29.2 12.5 12.5 22.4 27.3 29.2 43.7 6.8 16.3 10.2 33.8 10.2 51.5v269.5c0 17.7-3.4 35.2-10.2 51.6-6.8 16.3-16.7 31.2-29.2 43.7-12.5 12.5-27.4 22.4-43.7 29.2-16.4 6.8-33.9 10.2-51.6 10.2h-269.5c-17.7 0-35.2-3.4-51.5-10.2-16.4-6.8-31.2-16.7-43.7-29.2-12.5-12.5-22.5-27.4-29.2-43.7-6.8-16.4-10.3-33.9-10.3-51.6v-269.5c0-17.7 3.5-35.2 10.3-51.5 6.7-16.4 16.7-31.2 29.2-43.7 12.5-12.5 27.3-22.5 43.7-29.2 16.3-6.8 33.8-10.3 51.5-10.3zm27 53.9c-14.2 0-28.2 2.8-41.3 8.2-13 5.4-24.9 13.4-34.9 23.4-10 10-18 21.9-23.4 34.9-5.4 13.1-8.2 27.1-8.2 41.3v215.6c0 14.1 2.8 28.1 8.2 41.2 5.4 13.1 13.4 25 23.4 35 10 10 21.9 17.9 34.9 23.3 13.1 5.5 27.1 8.3 41.3 8.3h215.6c14.1 0 28.1-2.8 41.2-8.3 13.1-5.4 25-13.3 35-23.3 10-10 17.9-21.9 23.3-35 5.5-13.1 8.3-27.1 8.3-41.2v-215.6c0-14.2-2.8-28.2-8.3-41.3-5.4-13-13.3-24.9-23.3-34.9-10-10-21.9-18-35-23.4-13.1-5.4-27.1-8.2-41.2-8.2z"/><path class="c" d="m530.7 503.8l-93.4 93.4c-4.5 4.6-10.2 7.6-16.5 8.9-6.3 1.2-12.8 0.6-18.7-1.8-5.9-2.5-11-6.6-14.5-12-3.6-5.3-5.5-11.5-5.5-17.9v-186.9c0-6.4 1.9-12.6 5.5-17.9 3.5-5.4 8.6-9.5 14.5-12 5.9-2.4 12.4-3 18.7-1.8 6.3 1.3 12 4.3 16.5 8.9l93.4 93.4c3.1 3 5.4 6.5 7.1 10.5 1.6 3.9 2.4 8.1 2.4 12.3 0 4.3-0.8 8.5-2.4 12.4-1.7 4-4 7.5-7.1 10.5z"/><path class="d" d="m572.4 1381.1l78.8 0.1q3.7 0.1 6.3 2.4 2.7 2.4 2.7 5.6 0 3-2.7 5.3-2.6 2.2-6.3 2.2l-30.8-0.1v24l51.1 0.1q3.6 0 6.1 2.4 2.6 2.1 2.6 5.4 0 3-2.6 5.3-2.5 2.1-6.1 2.1h-51.1v51.4q0 3-2.4 5.4-2.4 2.3-6.1 2.3-3.7 0-6.3-2.3-2.5-2.4-2.5-5.4v-51.5h-51q-3.4 0-6.1-2.2-2.4-2.3-2.4-5.3 0-3.3 2.4-5.4 2.7-2.4 6.1-2.4l51 0.1v-24h-30.7q-3.5 0-6.1-2.2-2.7-2.3-2.7-5.3 0-3.3 2.7-5.6 2.6-2.4 6.1-2.4zm-57.9 109.7q-1.7 3-5.1 3.9-3.2 0.6-6.6-0.9-3.4-1.5-4.4-4.5-0.7-3 1-5.8 13.9-22.7 21-52.9 6.8-30.5 6.3-70.5 0-3 2.5-5.2 2.7-2.3 6.1-2.3v-0.2l134.9 0.2q3.7 0 6.1 2.3 2.7 2.2 2.7 5.4 0 3.2-2.7 5.3-2.4 2.2-6.1 2.2l-125.9-0.2q-0.5 36.9-6.8 66.2-7.4 32.4-23 57zm14.7-157.5v-24.7q0-3.2 2.4-5.3 2.7-2.4 6.4-2.4 3.6 0 6.1 2.4 2.4 2.1 2.4 5.3v17.2l43.2 0.1v-23.4q0-3.2 2.4-5.4 2.7-2.3 6.1-2.3 3.7 0 6.1 2.3 2.7 2.2 2.7 5.4v23.4h43v-17.1q0-3.2 2.4-5.4 2.7-2.3 6.4-2.3 3.6 0 6.1 2.4 2.4 2.1 2.4 5.3v24.7q0 3.2-2.4 5.5-2.5 2.2-6.1 2.2l-120.8-0.2q-3.7 0-6.4-2.2-2.4-2.3-2.4-5.5zm36.7 47.8l78.9 0.1q3.6 0 6.3 2.4 2.7 2.4 2.7 5.6 0 3-2.7 5.3-2.7 2.2-6.3 2.2l-30.8-0.1v24l51 0.1q3.7 0 6.1 2.4 2.7 2.1 2.7 5.3 0 3-2.7 5.4-2.4 2.1-6.1 2.1h-51v51.4q0 3-2.4 5.4-2.5 2.3-6.1 2.3-3.7 0-6.4-2.4-2.4-2.3-2.4-5.3v-51.5h-51q-3.4 0-6.1-2.2-2.5-2.4-2.5-5.4 0-3.2 2.5-5.3 2.7-2.4 6.1-2.4l51 0.1v-24h-30.8q-3.4 0-6.1-2.2-2.7-2.4-2.7-5.4 0-3.2 2.7-5.5 2.7-2.4 6.1-2.4zm-57.8 109.7q-1.7 3-5.1 3.8-3.2 0.7-6.6-0.8-3.4-1.5-4.4-4.5-0.8-3 1-5.8 13.9-22.7 20.9-52.9 6.9-30.5 6.4-70.5 0-3 2.4-5.2 2.7-2.3 6.1-2.3v-0.3l135 0.2q3.7 0 6.1 2.4 2.7 2.2 2.7 5.4 0 3.2-2.7 5.3-2.4 2.2-6.1 2.2l-125.9-0.2q-0.5 36.9-6.9 66.2-7.3 32.4-22.9 57zm14.6-157.5v-24.7q0-3.2 2.5-5.3 2.7-2.4 6.3-2.4 3.7 0 6.1 2.4 2.5 2.1 2.5 5.3v17.2h43.2v-23.3q0-3.2 2.4-5.4 2.7-2.3 6.1-2.3 3.7 0 6.1 2.3 2.7 2.2 2.7 5.4v23.4h42.9v-17.1q0-3.2 2.5-5.4 2.7-2.3 6.3-2.3 3.7 0 6.1 2.3 2.5 2.2 2.5 5.4v24.7q0 3.2-2.5 5.5-2.4 2.2-6.1 2.2l-120.8-0.2q-3.6 0-6.3-2.2-2.5-2.3-2.5-5.5zm283.2 23.5l-66.8-0.1q-6.9 0-8.1-7.7v-40.9q0-3.1 2.5-5 2.4-2.1 5.6-2.1l66.8 0.1q3.5 0 5.7 2.1 2.4 2 2.4 5v41.6q0 2.7-2.4 4.9-2.2 2.1-5.7 2.1zm4.4 61.8l-29.3 18.6v50.8q0 3.2-2.4 5.5-2.4 2.2-6.1 2.2-3.7 0-6.3-2.2-2.5-2.3-2.5-5.5v-50.6l-29.3-18.9q-3.1-2.4-3.4-5.6 0-3.2 2.7-5.4 19-16 38.1-16 19 0 39 15.9 3 2.4 2.7 5.6 0 3.2-3.2 5.6zm-87.1-47.3h40.5v-4q0-3.3 2.5-5.4 2.6-2.3 6.3-2.3 3.4 0 5.9 2.3 2.6 2.2 2.6 5.4v4.1h40.8q3.4 0 5.9 2.4 2.7 2.1 2.7 5.3 0 3.1-2.7 5.4-2.5 2.4-5.9 2.4l-98.6-0.2q-3.7 0-6.3-2.4-2.5-2.3-2.5-5.3 0-3.2 2.5-5.4 2.6-2.3 6.3-2.3zm122.5 119.3q-2.7 2.2-6.1 2.2-3.4 0-6.1-2.2-2.4-2.6-2.4-5.3 0-3 2.4-5.4 15.2-13 28.6-27.8 13.7-14.8 25.4-31.5 2.2-2.8 5.6-3.4 3.4-0.7 6.6 1.1 2.9 1.9 3.6 4.9 0.8 2.8-1.2 5.6-12.4 17.5-26.6 32.7-14.2 15.4-29.8 29.1zm3.2-74.3q-2.7 2.1-6.3 2.1-3.5-0.2-5.9-2.6-2.4-2.3-2.4-5.3 0.2-3.3 2.9-5.4 11.7-9.4 22.4-21 11-11.5 20.5-25.5 2-3 5.4-3.6 3.4-0.6 6.6 0.9 2.9 1.7 3.9 4.7 1 3-0.7 5.8-10.5 15.2-22.2 27.4-11.3 12.4-24.2 22.5zm-2.7-57.3q-2.7 2.4-6.1 2.4-3.4-0.2-6.1-2.6-2.4-2.4-2.4-5.4 0.2-3.2 2.9-5.3 10.3-8.6 20.3-19.5 10.2-11.1 20-24.6 1.9-2.8 5.3-3.5 3.5-0.6 6.6 1.1 3 2 3.7 5 0.7 2.8-1 5.5-10.5 14.4-21.2 25.9-10.5 11.8-22 21zm-122.5 134.3q-3.9-1.6-5.1-5-1-3.4 0.9-6.8 5.7-9.9 7.9-20.2 0.2-0.2 0.2-0.4 2.9-10.7 4.6-23.2 0.8-3.2 3.5-4.9 2.6-1.9 6.3-1.7 3.7 0.7 5.6 3 2.2 2.4 1.7 5.6-1.7 13.3-4.9 24.9-2.6 12-9.2 24.4-3.5 6.8-11.5 4.3zm88.1-56.3l12.2 47.8q0.7 3.2-1.2 5.8-2 2.6-5.6 3.2-3.7 0.7-6.6-0.9-2.7-1.7-3.4-4.9l-12.5-47.8q-0.7-3.2 1.2-5.6 2-2.5 5.7-3.2 3.6-0.6 6.5 0.9 3 1.5 3.7 4.7zm-59.3-24.7l20 12.6 19.8-12.4q-11-6.6-20.5-6.6-9.1-0.1-19.3 6.4zm45.4-77.4h-50.8v7.5h50.8zm-50.8-12.2h50.8v-7.5h-50.8zm52.4 34.1l-66.9-0.1q-6.8 0-8-7.7v-41q0-3 2.4-4.9 2.5-2.1 5.6-2.1l66.9 0.1q3.4 0 5.6 2.1 2.5 2 2.5 5v41.5q0 2.8-2.5 5-2.2 2.1-5.6 2.1zm4.4 61.8l-29.3 18.6v50.8q0 3.2-2.4 5.5-2.5 2.2-6.1 2.2-3.7 0-6.4-2.2-2.4-2.3-2.4-5.6v-50.5l-29.3-19q-3.2-2.3-3.4-5.5 0-3.2 2.7-5.4 19-16 38-16 19.1 0 39.1 15.9 2.9 2.4 2.7 5.6 0 3.2-3.2 5.6zm-87.1-47.3h40.5v-4q0-3.3 2.4-5.4 2.7-2.4 6.4-2.4 3.4 0.1 5.8 2.4 2.7 2.2 2.7 5.4v4.1h40.8q3.4 0 5.8 2.4 2.7 2.1 2.7 5.3 0 3-2.7 5.4-2.4 2.4-5.8 2.3l-98.6-0.1q-3.7 0-6.4-2.4-2.4-2.3-2.4-5.3 0-3.2 2.4-5.4 2.7-2.3 6.4-2.3zm122.5 119.3q-2.7 2.2-6.1 2.2-3.4 0-6.1-2.2-2.5-2.6-2.5-5.3 0-3 2.5-5.4 15.1-13.1 28.5-27.8 13.7-14.8 25.4-31.5 2.2-2.8 5.6-3.4 3.5-0.7 6.6 1.1 3 1.9 3.7 4.9 0.7 2.8-1.2 5.6-12.5 17.5-26.6 32.7-14.2 15.4-29.8 29.1zm3.2-74.3q-2.7 2.1-6.4 2.1-3.4-0.2-5.8-2.6-2.5-2.4-2.5-5.4 0.3-3.2 3-5.3 11.7-9.4 22.4-21 11-11.5 20.5-25.5 2-3 5.4-3.6 3.4-0.6 6.6 0.9 2.9 1.7 3.9 4.7 0.9 3-0.8 5.8-10.5 15.2-22.2 27.4-11.2 12.4-24.1 22.5zm-2.7-57.3q-2.7 2.4-6.1 2.4-3.4-0.3-6.1-2.6-2.5-2.4-2.5-5.4 0.3-3.2 3-5.3 10.2-8.6 20.2-19.5 10.3-11.1 20-24.6 2-2.8 5.4-3.5 3.4-0.6 6.6 1.1 2.9 2 3.7 5 0.7 2.7-1 5.5-10.5 14.4-21.3 25.9-10.4 11.8-21.9 21zm-122.5 134.2q-3.9-1.5-5.2-4.9-0.9-3.4 1-6.9 5.6-9.8 7.8-20.1 0.3-0.2 0.3-0.4 2.9-10.7 4.6-23.2 0.7-3.2 3.4-4.9 2.7-1.9 6.4-1.7 3.6 0.7 5.6 3 2.2 2.4 1.7 5.6-1.7 13.3-4.9 24.8-2.7 12-9.3 24.5-3.4 6.8-11.4 4.2zm88.1-56.2l12.2 47.8q0.7 3.2-1.2 5.8-2 2.6-5.7 3.2-3.6 0.6-6.6-0.9-2.6-1.7-3.4-4.9l-12.4-47.8q-0.8-3.2 1.2-5.6 2-2.6 5.6-3.2 3.7-0.6 6.6 0.9 2.9 1.5 3.7 4.7zm-59.3-24.7l20 12.6 19.7-12.4q-10.9-6.6-20.5-6.6-9-0.1-19.2 6.4zm45.4-77.4h-50.8v7.5h50.8zm-50.8-12.3l50.8 0.1v-7.5l-50.8-0.1zm367.9-11v174.7q0 3-2.7 5.4-2.7 2.1-6.3 2.1l-153.3-0.2q-3.7 0-6.4-2.2-2.4-2.3-2.4-5.3v-174.7q0-3.3 2.4-5.4 2.7-2.1 6.4-2.1l153.3 0.2q3.6 0 6.3 2.1 2.7 2.2 2.7 5.4zm-153.5 7.5v159.1l135.9 0.1v-159zm33.9 64.3h-17q-3.7 0-6.1-2.1-2.5-2.4-2.5-5.4 0-3.2 2.5-5.3 2.4-2.4 6.1-2.4h29.7q2.7-4 4.9-8.5h-7.8q-0.5 0.2-1 0.2-0.5 0-0.9-0.2l-16.9-0.1q-3.6 0-6.3-2.3-2.5-2.4-2.5-5.4 0-3 2.5-5.3 2.7-2.4 6.3-2.4h5.6l-1.9-5.1q-1-3.3 0.5-5.8 1.7-2.8 5.1-3.9 3.7-1 6.6 0.5 3.2 1.3 4.6 4.5l3.4 9.8 8.1 0.1q1.5-5.6 2.4-11.6 0.5-3.2 3.2-4.9 2.7-2 6.4-1.8 3.6 0.5 5.6 2.8 2.2 2.4 1.9 5.6-0.7 5.2-1.4 9.9h9.2l3.9-9.9q1-3.2 3.9-4.5 3.2-1.5 6.9-0.4 3.4 1.1 4.9 3.9 1.7 2.6 0.7 5.8l-2 5.1h8.6q3.4 0 5.8 2.4 2.7 2.4 2.7 5.4 0 3-2.7 5.3-2.4 2.4-5.8 2.4l-19.5-0.1q-1 0.2-2.2 0h-19.1q-1.9 4.5-4.1 8.6l52.7 0.1q3.6 0 6.1 2.3 2.7 2.2 2.7 5.4 0 3-2.7 5.3-2.5 2.2-6.1 2.2l-17.8-0.1q2.7 3.5 6.1 5.8 6.6 6.3 15.3 10.1 3.2 1.5 4.2 4.5 1 2.8-0.7 5.8-1.7 2.8-5.2 3.9-3.1 0.8-6.3-0.7-8.8-3.8-15.4-9v12.2q0.3 10.1-5.1 16.7-5.9 7.7-15.9 10.5-3.6 0.9-6.8-0.4-3.2-1.5-4.6-4.7-1-3.3 0.7-5.8 1.7-2.6 5.4-3.7 3.4-1 5.8-3.8 2.5-3 2.5-8.8v-6.2l-27.4-0.1v24.3q0 7.9 3.7 13 3.6 5.2 9 7.6 4.9 2.3 10.3 2.6 5.8 0.4 10.7-1.5 11.7-3.7 14.4-16.5l1-9.9q0.5-3.2 3.2-4.9 2.9-1.9 6.5-1.7 3.9 0.4 6.1 2.8 2.5 2.1 2.5 5.3l-1.2 9.9q-1.7 11.4-8.8 18.6-6.9 7.3-17.1 10.7-8.6 2.6-18.3 2.4-9.3-0.7-18.1-4.3-9.5-4.3-15.8-12.9-6.1-8.6-6.1-21.3v-30.8q-7.1 4.9-14.9 9.4-3.2 1.5-6.6 0.8-3.4-0.8-5.4-3.4-1.7-2.8-1-5.8 0.8-3 3.9-4.5 12.7-6.8 22.2-16.3zm11.8 11.4l43.4 0.1q-4.4-4.9-8.8-11.2-0.2 0-0.2-0.2h-23.7q-4.9 6.2-10.7 11.3zm101.4-83.2v174.7q0 3-2.7 5.3-2.7 2.2-6.3 2.2l-153.3-0.2q-3.7 0-6.3-2.2-2.5-2.4-2.5-5.4v-174.7q0-3.2 2.5-5.3 2.6-2.2 6.3-2.2l153.3 0.3q3.6 0 6.3 2.1 2.7 2.2 2.7 5.4zm-153.5 7.5v159l135.9 0.2v-159zm34 64.3h-17.1q-3.7 0-6.1-2.1-2.5-2.4-2.5-5.4 0-3.2 2.5-5.4 2.4-2.3 6.1-2.3h29.8q2.6-4 4.8-8.5h-7.8q-0.5 0.2-1 0.2-0.4 0-0.9-0.2l-16.9-0.1q-3.6 0-6.3-2.3-2.5-2.4-2.5-5.4 0-3 2.5-5.4 2.7-2.3 6.3-2.3h5.6l-1.9-5.1q-1-3.3 0.5-5.8 1.7-2.8 5.1-3.9 3.7-1.1 6.6 0.5 3.2 1.2 4.6 4.5l3.5 9.8h8q1.5-5.5 2.4-11.5 0.5-3.2 3.2-5 2.7-1.9 6.4-1.7 3.6 0.5 5.6 2.8 2.2 2.4 1.9 5.6-0.7 5.2-1.4 9.9h9.2l3.9-9.9q1-3.2 4-4.5 3.1-1.5 6.8-0.4 3.4 1.1 4.9 3.9 1.7 2.5 0.7 5.8l-2 5.1h8.6q3.4 0 5.8 2.4 2.7 2.3 2.7 5.3 0 3-2.7 5.4-2.4 2.4-5.8 2.4l-19.5-0.1q-1 0.2-2.2 0h-19.1q-1.9 4.5-4.1 8.6h52.7q3.7 0 6.1 2.4 2.7 2.2 2.7 5.4 0 3-2.7 5.3-2.4 2.2-6.1 2.2l-17.8-0.1q2.7 3.5 6.1 5.8 6.6 6.3 15.4 10.1 3.1 1.5 4.1 4.5 1 2.8-0.7 5.8-1.7 2.8-5.1 3.9-3.2 0.8-6.4-0.7-8.8-3.9-15.4-9v12.2q0.3 10.1-5.1 16.7-5.9 7.7-15.9 10.5-3.6 0.9-6.8-0.4-3.2-1.5-4.6-4.8-1-3.2 0.7-5.7 1.7-2.6 5.4-3.7 3.4-1 5.8-3.8 2.5-3 2.5-8.8v-6.2l-27.4-0.1v24.3q0 7.9 3.7 13 3.7 5.2 9 7.6 4.9 2.3 10.3 2.5 5.8 0.5 10.7-1.4 11.7-3.7 14.4-16.5l1-9.9q0.5-3.2 3.2-4.9 2.9-1.9 6.6-1.7 3.9 0.4 6.1 2.8 2.4 2.1 2.4 5.3l-1.2 9.9q-1.7 11.4-8.8 18.6-6.8 7.3-17.1 10.7-8.5 2.6-18.3 2.4-9.3-0.7-18.1-4.4-9.5-4.3-15.8-12.8-6.1-8.6-6.1-21.3v-30.8q-7.1 4.9-14.9 9.4-3.2 1.5-6.6 0.8-3.4-0.8-5.4-3.4-1.7-2.8-1-5.8 0.8-3 4-4.5 12.6-6.8 22.2-16.3zm11.7 11.4l43.4 0.1q-4.4-5-8.8-11.2-0.2 0-0.2-0.2h-23.7q-4.9 6.2-10.7 11.3z"/></svg>