<?xml version="1.0" standalone="no"?><!DOCTYPE svg PUBLIC "-//W3C//DTD SVG 1.1//EN" "http://www.w3.org/Graphics/SVG/1.1/DTD/svg11.dtd"><svg t="1731751472392" class="icon" viewBox="0 0 1024 1024" version="1.1" xmlns="http://www.w3.org/2000/svg" p-id="4628" xmlns:xlink="http://www.w3.org/1999/xlink" width="128" height="128"><path d="M374.980901 85.333333 635.799016 85.333333C655.996879 85.333333 672.370444 68.959749 672.370444 48.761905 672.370444 28.564061 655.996879 12.190476 635.799016 12.190476L374.980901 12.190476C354.783037 12.190476 338.409472 28.564061 338.409472 48.761905 338.409472 68.959749 354.783037 85.333333 374.980901 85.333333ZM805.919842 106.379849C837.376683 106.379849 863.806903 134.437361 863.806903 170.064321L863.806903 872.117399C863.806903 907.749605 837.371855 935.801866 805.919842 935.801866L191.982299 935.801866C160.525458 935.801866 134.095238 907.744358 134.095238 872.117399L134.095238 170.064321C134.095238 134.432115 160.530237 106.379849 191.982299 106.379849 212.180114 106.379849 228.553728 90.006265 228.553728 69.808421 228.553728 49.610581 212.180114 33.236992 191.982299 33.236992 119.131624 33.236992 60.952381 94.975542 60.952381 170.064321L60.952381 872.117399C60.952381 947.195324 119.120408 1008.944723 191.982299 1008.944723L805.919842 1008.944723C878.770469 1008.944723 936.94976 947.206178 936.94976 872.117399L936.94976 170.064321C936.94976 94.986396 878.781684 33.236992 805.919842 33.236992 785.721978 33.236992 769.348413 49.610581 769.348413 69.808421 769.348413 90.006265 785.721978 106.379849 805.919842 106.379849ZM280.527433 305.922901 729.336734 305.922901C749.534598 305.922901 765.908163 289.549317 765.908163 269.351473 765.908163 249.153634 749.534598 232.780044 729.336734 232.780044L280.527433 232.780044C260.32957 232.780044 243.956005 249.153634 243.956005 269.351473 243.956005 289.549317 260.32957 305.922901 280.527433 305.922901ZM280.527433 531.15646 729.336734 531.15646C749.534598 531.15646 765.908163 514.782876 765.908163 494.585032 765.908163 474.387193 749.534598 458.013603 729.336734 458.013603L280.527433 458.013603C260.32957 458.013603 243.956005 474.387193 243.956005 494.585032 243.956005 514.782876 260.32957 531.15646 280.527433 531.15646ZM280.527433 751.746033 729.336734 751.746033C749.534598 751.746033 765.908163 735.372444 765.908163 715.174605 765.908163 694.976761 749.534598 678.603176 729.336734 678.603176L280.527433 678.603176C260.32957 678.603176 243.956005 694.976761 243.956005 715.174605 243.956005 735.372444 260.32957 751.746033 280.527433 751.746033Z" fill="#1296db" p-id="4629" data-spm-anchor-id="a313x.search_index.0.i6.3ddb3a81FHzAgY" class="selected"></path></svg>