<?xml version="1.0" standalone="no"?><!DOCTYPE svg PUBLIC "-//W3C//DTD SVG 1.1//EN" "http://www.w3.org/Graphics/SVG/1.1/DTD/svg11.dtd"><svg t="1731750146953" class="icon" viewBox="0 0 1024 1024" version="1.1" xmlns="http://www.w3.org/2000/svg" p-id="4404" width="128" height="128" xmlns:xlink="http://www.w3.org/1999/xlink"><path d="M923.6 408.7L565.3 110.4c-15.4-12.9-34.6-19.6-53.3-19.6s-37.9 6.7-53.3 19.6L100.4 408.7c-30 25-12.1 73.7 26.7 73.7h51.7v375c0 45.8 37.5 83.3 83.3 83.3h123c1.1 0 2-0.9 2-2V692.1c0-69.2 55.7-126.3 124.9-126.3 69.2-0.1 125.1 55.8 125.1 125v248c0 1.1 0.9 2 2 2h123c45.8 0 83.3-37.5 83.3-83.3V482.4h51.7c38.6 0 56.5-48.7 26.5-73.7z" fill="#009F72" p-id="4405"></path><path d="M512.6 649.1c-23.2-0.3-42.2 19.2-42.2 42.4v247.2c0 1.1 0.9 2 2 2h79.3c1.1 0 2-0.9 2-2v-248c0-22.7-18.5-41.3-41.1-41.6z" fill="#F9DB88" p-id="4406"></path></svg>