<?xml version="1.0" standalone="no"?><!DOCTYPE svg PUBLIC "-//W3C//DTD SVG 1.1//EN" "http://www.w3.org/Graphics/SVG/1.1/DTD/svg11.dtd"><svg t="1731171486005" class="icon" viewBox="0 0 1024 1024" version="1.1" xmlns="http://www.w3.org/2000/svg" p-id="2304" xmlns:xlink="http://www.w3.org/1999/xlink" width="200" height="200"><path d="M580.266667 0H79.644444L1024 944.355556V443.733333L580.266667 0z m210.488889 329.955556l22.755555 5.688888c0 17.066667 0 39.822222-5.688889 51.2l-28.444444-5.688888c5.688889-11.377778 11.377778-34.133333 11.377778-51.2z m-341.333334-73.955556c11.377778 0 34.133333-5.688889 51.2-11.377778l11.377778 22.755556c-11.377778 5.688889-34.133333 11.377778-51.2 17.066666l-11.377778-28.444444z m45.511111 56.888889c5.688889-5.688889 17.066667-22.755556 28.444445-34.133333l17.066666 17.066666c-5.688889 11.377778-17.066667 22.755556-22.755555 34.133334l-22.755556-17.066667z m39.822223 39.822222c5.688889-11.377778 11.377778-28.444444 22.755555-39.822222l22.755556 17.066667c-11.377778 11.377778-17.066667 28.444444-22.755556 34.133333l-22.755555-11.377778z m62.577777 51.2l-22.755555-5.688889c5.688889-11.377778 11.377778-34.133333 11.377778-51.2l22.755555 11.377778c0 11.377778-5.688889 34.133333-11.377778 45.511111z m22.755556-51.2c-22.755556-22.755556 5.688889-45.511111 51.2-91.022222l-17.066667-17.066667c-11.377778 11.377778-22.755556 17.066667-34.133333 22.755556 0 22.755556 5.688889 34.133333 5.688889 39.822222l-22.755556 5.688889c0-5.688889 0-17.066667-5.688889-28.444445-17.066667 5.688889-34.133333 5.688889-51.2 0 0-5.688889 5.688889-17.066667 0-28.444444 17.066667 5.688889 28.444444 5.688889 45.511111 0 0-5.688889-5.688889-17.066667-5.688888-22.755556L563.2 227.555556l-17.066667 17.066666c-11.377778 11.377778-17.066667 11.377778-22.755555 11.377778-11.377778-5.688889-17.066667-11.377778-28.444445-22.755556 5.688889-5.688889 11.377778-11.377778 11.377778-22.755555 5.688889 11.377778 17.066667 17.066667 17.066667 17.066667h5.688889l17.066666-17.066667-28.444444-11.377778 17.066667-22.755555c5.688889 5.688889 17.066667 11.377778 28.444444 17.066666l17.066667-17.066666-22.755556-22.755556 17.066667-17.066667 22.755555 22.755556 22.755556-22.755556 17.066667 17.066667-22.755556 22.755556 17.066667 17.066666-17.066667 17.066667-17.066667-17.066667-11.377777 11.377778c5.688889 5.688889 11.377778 5.688889 17.066666 11.377778l-17.066666 17.066666 17.066666-5.688888c0 5.688889 0 11.377778 5.688889 17.066666 5.688889-5.688889 17.066667-11.377778 22.755556-17.066666l-17.066667-17.066667 17.066667-17.066667 17.066666 17.066667c5.688889-5.688889 17.066667-11.377778 22.755556-22.755556l17.066667 17.066667c-5.688889 17.066667-11.377778 22.755556-17.066667 28.444444l34.133333 34.133334c-45.511111 39.822222-73.955556 68.266667-68.266666 73.955555 0 0 5.688889 0 17.066666-11.377777 0 5.688889 5.688889 17.066667 5.688889 22.755555-17.066667 11.377778-28.444444 11.377778-39.822222 0z m22.755555 113.777778l113.777778-113.777778 17.066667 17.066667-113.777778 113.777778-17.066667-17.066667z m159.288889 108.088889c-11.377778 11.377778-17.066667 11.377778-28.444444 11.377778-11.377778-5.688889-22.755556-11.377778-34.133333-28.444445 5.688889-5.688889 11.377778-17.066667 11.377777-22.755555l22.755556 22.755555c5.688889 5.688889 5.688889 5.688889 11.377778 0L887.466667 455.111111l-68.266667-68.266667 17.066667-17.066666L921.6 455.111111l-119.466667 119.466667z" p-id="2305" fill="#d81e06"></path></svg>