<svg version="1.2" xmlns="http://www.w3.org/2000/svg" viewBox="0 0 1600 1600" width="1600" height="1600"><defs><filter x="-50%" y="-50%" width="200%" height="200%" id="f1" ><feDropShadow dx="14.722431864335459" dy="8.499999999999998" stdDeviation="5.416666666666667" flood-color="#000000" flood-opacity=".6"/></filter><filter x="-50%" y="-50%" width="200%" height="200%" id="f2" ><feDropShadow dx="14.722431864335459" dy="8.499999999999998" stdDeviation="5.416666666666667" flood-color="#000000" flood-opacity=".6"/></filter><filter x="-50%" y="-50%" width="200%" height="200%" id="f3" ><feDropShadow dx="14.722431864335459" dy="8.499999999999998" stdDeviation="5.416666666666667" flood-color="#000000" flood-opacity=".6"/></filter></defs><style>.a{filter:url(#f1);fill:#fff}.b{filter:url(#f2);fill:#fff}.c{filter:url(#f3);fill:#fff}</style><path fill-rule="evenodd" class="a" d="m881.9 1239.2l-0.5-0.9c-0.7-1.3-2-2.9-3.1-4.3l-0.4-0.7c-0.6-0.8-1.2-1.6-1.7-2.4l-2.7-4.1-0.4-0.3-135.9-209.3c-4-6.1-7.3-12.5-10-19.2-2.7-6.7-4.8-13.6-6.2-20.7-1.4-7.1-2.1-14.4-2.1-21.6 0-7.2 0.7-14.4 2.1-21.5 1.3-7.1 3.3-14 5.9-20.7 2.6-6.6 5.9-13 9.7-19.1 3.9-6 8.3-11.6 13.3-16.8 5-5.2 10.4-9.8 16.3-14 7.6-5.2 15.9-9.5 24.7-12.5 8.7-3.1 17.8-5 27.1-5.7 9.2-0.7 18.5-0.1 27.6 1.7 9.1 1.8 17.9 4.8 26.2 8.9v-349.8c-0.1-60.8 45.7-110.4 102-110.4 56.3 0 102.2 49.6 102.2 110.5v112.3q3.1-1 6.3-1.8 3.1-0.7 6.4-1.3 3.2-0.5 6.4-0.8 3.3-0.2 6.6-0.2c26.6 0 51.7 12.8 69.5 34.9q5.1-3.4 10.7-6 5.6-2.7 11.5-4.5 5.9-1.9 12.1-2.8 6.1-1 12.3-1.1 7.1 0 14.1 1.3 7 1.2 13.7 3.5 6.7 2.4 12.9 5.9 6.3 3.4 11.8 7.9c11.7 9.1 21.6 21 28.7 34.8 8.3-2.7 16.9-4.1 25.6-4.1 52.4 0 95 49.6 95 110.5v293.9c0 65.1-28.7 136.9-73.2 183.2-24.8 25.8-51.5 40.1-75.4 40.1h-290.4c-54.5 0-78.9-40.4-98.7-72.8zm395 18.5c8.8 0 30.7-14.7 52.2-47.3 23-35.2 36.2-77.3 36.2-115.4v-302.3c0-24.7-15.2-46.2-32.6-46.2q-1.4 0-2.9 0.2-1.4 0.2-2.8 0.6-1.4 0.3-2.7 0.9-1.3 0.5-2.6 1.2v105.7h-0.1c-1.2 17.7-15.5 31.5-32.6 31.6-17.3 0-31.6-14-32.7-31.6h-0.1v-91.7l-1.9-25.8c-1.7-23-16.4-41.7-32.8-41.7-7.3 0-14.8 4-20.7 10.8v114.3c0 18.7-14.7 33.9-32.8 33.9-18.1-0.1-32.7-15.2-32.7-33.9v-100.6l-2.5-11.7c-4-19.6-17.6-34.3-31.4-34.3-9.5 0-18.9 6.7-25.3 17.5l-1 113.5v42.6c0 16.6-13.2 30.2-29.2 30.2h-7.1c-16 0-29.1-13.6-29.1-30.2v-340.5l-0.2-12c0-25.4-17.9-46.1-40-46.1-22.1 0-40 20.7-40 46.1l1.4 330.9q0.1 1.5 0.1 3.1v131.3c-0.2 16.9-12.5 31-28.6 33.2-4 0.4-8 0.2-11.8-0.7-3.9-1-7.6-2.6-10.8-4.9-3.3-2.2-6.1-5-8.4-8.3-2.3-3.3-3.9-6.9-4.9-10.8l-12.3-37.1q-2.4-3.7-5.5-6.9-3.1-3.2-6.7-5.8-3.7-2.5-7.8-4.3-4.1-1.7-8.4-2.6-4.4-0.9-8.8-0.9-4.4 0-8.7 0.9-4.3 0.9-8.4 2.6-4 1.8-7.7 4.3c-20.4 14.2-25.9 42.9-12.1 64.1l140.1 215.4 0.5 0.6 1.7 2.6 2.2 3.3c1.3 2.2 2.7 4.2 4 5.8l0.9 1.2 0.7 1.5c21.8 36 30.2 43.8 46.8 43.8h299.9z"/><path fill-rule="evenodd" class="b" d="m314.7 288h269.5c17.7 0 35.2 3.5 51.6 10.3 16.3 6.7 31.2 16.7 43.7 29.2 12.5 12.5 22.4 27.3 29.2 43.7 6.8 16.3 10.2 33.8 10.2 51.5v269.5c0 17.7-3.4 35.2-10.2 51.6-6.8 16.3-16.7 31.2-29.2 43.7-12.5 12.5-27.4 22.4-43.7 29.2-16.4 6.8-33.9 10.2-51.6 10.2h-269.5c-17.7 0-35.2-3.4-51.5-10.2-16.4-6.8-31.2-16.7-43.7-29.2-12.5-12.5-22.5-27.4-29.2-43.7-6.8-16.4-10.3-33.9-10.3-51.6v-269.5c0-17.7 3.5-35.2 10.3-51.5 6.7-16.4 16.7-31.2 29.2-43.7 12.5-12.5 27.3-22.5 43.7-29.2 16.3-6.8 33.8-10.3 51.5-10.3zm27 53.9c-14.2 0-28.2 2.8-41.3 8.2-13 5.4-24.9 13.4-34.9 23.4-10 10-18 21.9-23.4 34.9-5.4 13.1-8.2 27.1-8.2 41.3v215.6c0 14.1 2.8 28.1 8.2 41.2 5.4 13.1 13.4 25 23.4 35 10 10 21.9 17.9 34.9 23.3 13.1 5.5 27.1 8.3 41.3 8.3h215.6c14.1 0 28.1-2.8 41.2-8.3 13.1-5.4 25-13.3 35-23.3 10-10 17.9-21.9 23.3-35 5.5-13.1 8.3-27.1 8.3-41.2v-215.6c0-14.2-2.8-28.2-8.3-41.3-5.4-13-13.3-24.9-23.3-34.9-10-10-21.9-18-35-23.4-13.1-5.4-27.1-8.2-41.2-8.2z"/><path class="c" d="m530.7 593.8l-93.4 93.4c-4.5 4.6-10.2 7.6-16.5 8.9-6.3 1.2-12.8 0.6-18.7-1.8-5.9-2.5-11-6.6-14.5-12-3.6-5.3-5.5-11.5-5.5-17.9v-186.9c0-6.4 1.9-12.6 5.5-17.9 3.5-5.4 8.6-9.5 14.5-12 5.9-2.4 12.4-3 18.7-1.8 6.3 1.3 12 4.3 16.5 8.9l93.4 93.4c3.1 3 5.4 6.5 7.1 10.5 1.6 3.9 2.4 8.1 2.4 12.3 0 4.3-0.8 8.5-2.4 12.4-1.7 4-4 7.5-7.1 10.5z"/></svg>