<?xml version="1.0" standalone="no"?><!DOCTYPE svg PUBLIC "-//W3C//DTD SVG 1.1//EN" "http://www.w3.org/Graphics/SVG/1.1/DTD/svg11.dtd"><svg t="1731170796054" class="icon" viewBox="0 0 1024 1024" version="1.1" xmlns="http://www.w3.org/2000/svg" p-id="10752" xmlns:xlink="http://www.w3.org/1999/xlink" width="200" height="200"><path d="M427.136 377.088c0-15.296 10.816-21.504 24.064-13.888l228.224 131.776c13.248 7.616 13.248 20.16 0 27.776L451.2 654.528c-13.248 7.616-24.064 1.408-24.064-13.888V377.088z" fill="#ffffff" p-id="10753"></path><path d="M821.12 574.72c19.072-99.584-1.728-188.864-68.672-265.152-57.856-65.92-132.096-100.224-219.776-102.208a301.248 301.248 0 0 0-308.8 308.736c4.672 182.336 171.84 323.392 360.576 287.936v42.88c0 6.592-0.384 13.184 0.128 19.712 0.384 4.544-1.792 5.312-5.312 5.824a374.144 374.144 0 0 1-74.24 3.264 355.904 355.904 0 0 1-160.192-46.72c-97.792-56.64-159.488-140.16-181.248-251.264-37.632-192.704 84.48-380.672 275.648-426.176a368.64 368.64 0 0 1 443.52 267.136c12.8 50.048 14.4 100.608 6.144 151.552-0.32 2.048 0 4.608-3.52 4.608-21.44-0.192-42.816-0.128-64.256-0.128z" fill="#ffffff" p-id="10754"></path><path d="M525.76 892.288c-7.168 0-14.4-0.256-21.632-0.64a373.888 373.888 0 0 1-167.232-48.832c-103.04-59.776-166.656-147.968-188.928-262.144a381.248 381.248 0 0 1 287.616-444.672 384.384 384.384 0 0 1 462.656 278.72c13.056 50.88 15.232 104.064 6.528 158.08a18.88 18.88 0 0 1-19.392 18.048l-83.648-0.128 3.712-19.008c18.56-96.64-3.328-181.312-64.96-251.584-54.72-62.336-124.736-94.848-208.192-96.768l-6.72-0.128a283.392 283.392 0 0 0-204.672 86.08 283.072 283.072 0 0 0-81.024 206.4c3.968 153.216 132.288 277.824 286.208 277.824 18.368 0 37.056-1.728 55.488-5.248l18.944-3.584-0.064 68.544c-0.128 4.032-0.192 8 0.128 12.032 0.832 9.728-3.776 20.864-19.008 22.976a394.496 394.496 0 0 1-55.808 4.032z m0.064-734.976c-27.776 0-55.616 3.264-82.88 9.792a349.568 349.568 0 0 0-263.616 407.552c20.48 104.768 78.912 185.664 173.568 240.576a341.824 341.824 0 0 0 153.152 44.48c20.48 1.344 41.28 0.576 62.4-1.92l0.064-5.12 0.064-29.888a338.944 338.944 0 0 1-42.432 2.752c-171.072 0-313.792-138.624-318.208-308.992a314.816 314.816 0 0 1 89.984-229.568 315.392 315.392 0 0 1 227.648-95.744l7.488 0.128c92.736 2.112 170.624 38.336 231.424 107.648 64.448 73.408 89.792 160.704 75.584 259.712l34.432 0.064c6.4-47.616 3.904-92.8-7.232-136.128a352.512 352.512 0 0 0-341.44-265.344z" fill="#ffffff" p-id="10755"></path><path d="M814.528 769.472c0 35.904-0.064 71.808 0.128 107.712 0 4.16-0.96 5.44-5.248 5.376a1639.168 1639.168 0 0 0-50.176 0c-4.352 0.064-5.312-1.344-5.248-5.44 0.128-71.232 0.064-142.464 0.128-213.696 0-13.312 7.68-20.928 20.992-20.992h20.288c12.096 0.128 19.2 7.232 19.264 19.392-0.128 35.84-0.128 71.744-0.128 107.648z" fill="#ffffff" p-id="10756"></path><path d="M714.048 809.472c0 22.528-0.128 45.12 0.064 67.648 0.064 4.096-0.832 5.504-5.248 5.44a1955.456 1955.456 0 0 0-51.264 0c-3.392 0.064-4.48-0.832-4.48-4.352 0.128-45.248 0-90.56 0.128-135.808 0-12.224 8.384-20.48 20.544-20.736 5.824-0.128 11.648-0.064 17.472 0 15.936 0 22.72 6.72 22.72 22.528 0.128 21.696 0.064 43.456 0.064 65.28z" fill="#ffffff" p-id="10757"></path><path d="M916.032 840.64c0 12.224-0.128 24.448 0.064 36.672 0.064 3.648-0.576 5.312-4.8 5.248a1960.32 1960.32 0 0 0-51.328 0c-3.84 0.064-4.672-1.28-4.672-4.864 0.128-24.256 0-48.512 0.128-72.704 0.064-14.208 8.768-22.784 22.784-22.784h15.232a22.464 22.464 0 0 1 22.592 22.4v36.032z" fill="#ffffff" p-id="10758"></path></svg>