<?xml version="1.0" standalone="no"?><!DOCTYPE svg PUBLIC "-//W3C//DTD SVG 1.1//EN" "http://www.w3.org/Graphics/SVG/1.1/DTD/svg11.dtd"><svg t="1727944951818" class="icon" viewBox="0 0 1080 1024" version="1.1" xmlns="http://www.w3.org/2000/svg" p-id="6209" width="31.640625" height="30" xmlns:xlink="http://www.w3.org/1999/xlink"><path d="M0 0h625.777778v739.555556H0z" fill="#F6F7F8" p-id="6210"></path><path d="M0 739.555556V0h625.777778v739.555556H0zM568.888889 56.888889H56.888889v625.777778h512V56.888889z" fill="#484D55" p-id="6211"></path><path d="M398.222222 455.111111h682.666667v568.888889H398.222222z" fill="#F6F7F8" p-id="6212"></path><path d="M398.222222 1024V455.111111h682.666667v568.888889H398.222222z m625.777778-512H455.111111v455.111111h568.888889V512z" fill="#484D55" p-id="6213"></path><path d="M1080.888889 56.888889v142.222222a28.444444 28.444444 0 0 1-56.888889 0V56.888889h-142.222222a28.444444 28.444444 0 0 1 0-56.888889H1080.888889v56.888889zM199.111111 1024H0v-28.444444-170.951112a28.444444 28.444444 0 0 1 56.888889 0V967.111111h142.222222a28.444444 28.444444 0 0 1 0 56.888889z" fill="#484D55" p-id="6214"></path></svg>