<?xml version="1.0" standalone="no"?><!DOCTYPE svg PUBLIC "-//W3C//DTD SVG 1.1//EN" "http://www.w3.org/Graphics/SVG/1.1/DTD/svg11.dtd"><svg t="1728131534088" class="icon" viewBox="0 0 1024 1024" version="1.1" xmlns="http://www.w3.org/2000/svg" p-id="9875" xmlns:xlink="http://www.w3.org/1999/xlink" width="128" height="128"><path d="M512.015085 511.993752m-346.802878 346.802877a490.453333 490.453333 0 1 0 693.605756-693.605755 490.453333 490.453333 0 1 0-693.605756 693.605755Z" fill="#303A3A" p-id="9876"></path><path d="M798.293333 727.466667l-75.946666-75.946667a21.333333 21.333333 0 0 1-2.773334-26.666667A256 256 0 1 0 631.466667 704a21.333333 21.333333 0 0 1 25.6 3.2l81.066666 81.28a42.666667 42.666667 0 0 0 60.16 0 42.666667 42.666667 0 0 0 0-61.013333zM341.333333 478.933333a170.666667 170.666667 0 1 1 170.666667 170.666667 170.666667 170.666667 0 0 1-170.666667-170.666667z" fill="#40FF40" p-id="9877"></path><path d="M776.96 727.466667l-75.946667-75.946667a21.333333 21.333333 0 0 1-2.773333-26.666667A256 256 0 1 0 610.133333 704a21.333333 21.333333 0 0 1 25.6 3.2l81.066667 81.28a42.666667 42.666667 0 0 0 60.16 0 42.666667 42.666667 0 0 0 0-61.013333zM320 478.933333a170.666667 170.666667 0 1 1 170.666667 170.666667 170.666667 170.666667 0 0 1-170.666667-170.666667z" fill="#40FFFF" p-id="9878"></path><path d="M755.626667 727.466667l-75.946667-75.946667a21.333333 21.333333 0 0 1-2.773333-26.666667A256 256 0 1 0 588.8 704a21.333333 21.333333 0 0 1 25.6 3.2l81.066667 81.28a42.666667 42.666667 0 0 0 60.16 0 42.666667 42.666667 0 0 0 0-61.013333zM298.666667 478.933333a170.666667 170.666667 0 1 1 170.666666 170.666667 170.666667 170.666667 0 0 1-170.666666-170.666667z" fill="#F5FFFF" p-id="9879"></path></svg>